<svg xmlns="http://www.w3.org/2000/svg" version="1.1" xmlns:xlink="http://www.w3.org/1999/xlink" xmlns:svgjs="http://svgjs.dev/svgjs" width="128" height="128" viewBox="0 0 128 128"><g transform="matrix(0.8046875,0,0,0.8046875,12.760752631578946,31.688408054570374)"><svg viewBox="0 0 95 60" data-background-color="#000000" preserveAspectRatio="xMidYMid meet" height="80" width="128" xmlns="http://www.w3.org/2000/svg" xmlns:xlink="http://www.w3.org/1999/xlink"><g id="tight-bounds" transform="matrix(1,0,0,1,-0.24049999999999727,0.1156585122450906)"><svg viewBox="0 0 95.48100000000001 59.768682975509826" height="59.768682975509826" width="95.48100000000001"><g><svg viewBox="0 0 95.48100000000001 59.768682975509826" height="59.768682975509826" width="95.48100000000001"><g><svg viewBox="0 0 95.48100000000001 59.768682975509826" height="59.768682975509826" width="95.48100000000001"><g id="textblocktransform"><svg viewBox="0 0 95.48100000000001 59.768682975509826" height="59.768682975509826" width="95.48100000000001" id="textblock"><g><svg viewBox="0 0 95.48100000000001 59.768682975509826" height="59.768682975509826" width="95.48100000000001"><g><svg viewBox="0 0 95.48100000000001 59.768682975509826" height="59.768682975509826" width="95.48100000000001"><g><svg xmlns="http://www.w3.org/2000/svg" xmlns:xlink="http://www.w3.org/1999/xlink" version="1.1" x="0" y="0" viewBox="5.0184910692361715 21.88677685950413 89.98883161959482 56.33072494431455" enable-background="new 0 0 100 100" xml:space="preserve" height="59.768682975509826" width="95.48100000000001" class="icon-icon-0" data-fill-palette-color="accent" id="icon-0"></svg></g></svg></g></svg></g></svg></g></svg></g></svg></g><defs></defs><mask id="7e9debd3-27e1-42d7-9277-4778edab8ce6"><g id="SvgjsG1073"><svg viewBox="0 0 95.48100000000001 59.768682975509826" height="59.768682975509826" width="95.48100000000001"><g><svg viewBox="0 0 95.48100000000001 59.768682975509826" height="59.768682975509826" width="95.48100000000001"><g><svg viewBox="0 0 95.48100000000001 59.768682975509826" height="59.768682975509826" width="95.48100000000001"><g id="SvgjsG1072"><svg viewBox="0 0 95.48100000000001 59.768682975509826" height="59.768682975509826" width="95.48100000000001" id="SvgjsSvg1071"><g><svg viewBox="0 0 95.48100000000001 59.768682975509826" height="59.768682975509826" width="95.48100000000001"><g><svg viewBox="0 0 95.48100000000001 59.768682975509826" height="59.768682975509826" width="95.48100000000001"><g><svg xmlns="http://www.w3.org/2000/svg" xmlns:xlink="http://www.w3.org/1999/xlink" version="1.1" x="0" y="0" viewBox="5.0184910692361715 21.88677685950413 89.98883161959482 56.33072494431455" enable-background="new 0 0 100 100" xml:space="preserve" height="59.768682975509826" width="95.48100000000001" class="icon-icon-0" data-fill-palette-color="accent" id="SvgjsSvg1070"><path d="M94.8 57.3c-1.3-8.7-8.7-14.9-17.1-15.3 2.1-7.8 7.2-10.9 13.4-12.7 0.6-0.2 0.5-0.8 0.5-0.8l-1-6.2c0 0-0.1-0.5-0.9-0.4-21.4 2.4-35.9 18.7-33.2 38.5C59 74.1 69.7 79.4 79.6 78 89.5 76.4 96.3 67.2 94.8 57.3L94.8 57.3zM26.5 42c2-7.8 7.3-10.9 13.4-12.7 0.6-0.2 0.5-0.8 0.5-0.8l-0.9-6.2c0 0-0.1-0.5-0.9-0.4C17.2 24.2 2.8 40.5 5.3 60.3 7.9 74.1 18.7 79.4 28.5 78c9.9-1.6 16.7-10.8 15.1-20.7C42.3 48.5 35 42.3 26.5 42z" fill="white"></path></svg></g></svg></g></svg></g></svg></g></svg></g></svg></g><defs><mask></mask></defs></svg><rect width="95.48100000000001" height="59.768682975509826" fill="black" stroke="none" visibility="hidden"></rect></g></mask><linearGradient x1="0" x2="1" y1="0.578" y2="0.595" id="97e5bca1-62d3-49d6-98bf-c18d4afe1003"><stop stop-color="#6ee2f5" offset="0"></stop><stop stop-color="#6454f0" offset="1"></stop></linearGradient><rect width="95.48100000000001" height="59.768682975509826" fill="#000000" mask="url(#7e9debd3-27e1-42d7-9277-4778edab8ce6)" data-fill-palette-color="accent"></rect></svg><rect width="95.48100000000001" height="59.768682975509826" fill="none" stroke="none" visibility="hidden"></rect></g></svg></g></svg>